<svg width="16" height="16" viewBox="0 0 16 16" fill="none" xmlns="http://www.w3.org/2000/svg">
<path d="M14.4 14.4V9.71198C14.4 7.40798 13.904 5.64797 11.216 5.64797C9.91998 5.64797 9.05598 6.35198 8.70398 7.02398H8.67198V5.85597H6.12798V14.4H8.78398V10.16C8.78398 9.03998 8.99198 7.96798 10.368 7.96798C11.728 7.96798 11.744 9.23198 11.744 10.224V14.384H14.4V14.4Z" fill="#999999"/>
<path d="M1.80798 5.85598H4.46398V14.4H1.80798V5.85598Z" fill="#999999"/>
<path d="M3.13598 1.59998C2.28798 1.59998 1.59998 2.28798 1.59998 3.13598C1.59998 3.98398 2.28798 4.68798 3.13598 4.68798C3.98398 4.68798 4.67198 3.98398 4.67198 3.13598C4.67198 2.28798 3.98398 1.59998 3.13598 1.59998Z" fill="#999999"/>
</svg>
