<svg width="24" height="24" viewBox="0 0 24 24" fill="none" xmlns="http://www.w3.org/2000/svg">
<g clip-path="url(#clip0_16_590)">
<path d="M5.96363 9.78656C8.57213 9.78656 10.6943 7.66441 10.6943 5.0559C10.4565 -1.21131 1.46987 -1.20967 1.23297 5.05595C1.23302 7.66436 3.35517 9.78656 5.96363 9.78656ZM5.96363 1.7314C7.79675 1.7314 9.28813 3.22273 9.28813 5.05585C9.12102 9.46013 2.80567 9.45896 2.63917 5.05581C2.63922 3.22273 4.13055 1.7314 5.96363 1.7314Z" fill="white"/>
<path d="M23.905 8.82945L19.0099 0.35065C18.7487 -0.114756 18.0531 -0.114616 17.7921 0.35065L12.8969 8.82945C12.6244 9.28829 12.9724 9.89066 13.5058 9.8841H23.2961C23.8297 9.89066 24.1774 9.2881 23.905 8.82945ZM14.7236 8.47789L18.4009 2.10845L22.0782 8.47789H14.7236Z" fill="white"/>
<path d="M22.5318 13.1893H14.2478C13.8595 13.1893 13.5447 13.5041 13.5447 13.8924V22.1765C13.5447 22.5648 13.8595 22.8796 14.2478 22.8796H22.5318C22.9201 22.8796 23.2349 22.5648 23.2349 22.1765V13.8924C23.2349 13.5041 22.9201 13.1893 22.5318 13.1893ZM21.8287 21.4734H14.9509V14.5955H21.8287V21.4734Z" fill="white"/>
<path d="M6.46062 12.2772C6.18609 12.0027 5.74088 12.0026 5.4663 12.2772L0.205927 17.5376C-0.068611 17.8122 -0.0686578 18.2573 0.20588 18.5319L5.46667 23.7924C5.74121 24.0669 6.18641 24.067 6.461 23.7924L11.7214 18.532C11.996 18.2574 11.996 17.8123 11.7215 17.5377L6.46062 12.2772ZM5.96377 22.3009L1.69739 18.0348L5.96349 13.7687L10.2299 18.0348L5.96377 22.3009Z" fill="white"/>
</g>
<defs>
<clipPath id="clip0_16_590">
<rect width="24" height="24" fill="white"/>
</clipPath>
</defs>
</svg>
