<svg width="100" height="100" viewBox="0 0 100 100" fill="none" xmlns="http://www.w3.org/2000/svg">
<g clip-path="url(#clip0_16_123)">
<path d="M93.7185 98.5353H45.74C43.5826 98.5353 41.8337 96.7864 41.8337 94.629V35.6655C41.8337 33.5081 43.5826 31.7593 45.74 31.7593H93.7187C95.8761 31.7593 97.625 33.5081 97.625 35.6655V94.629C97.6248 96.7864 95.8759 98.5353 93.7185 98.5353Z" fill="#60B7FF"/>
<path d="M93.7185 31.7593H91.7968V88.8464C91.7968 91.0038 90.048 92.7526 87.8906 92.7526H41.8337V94.629C41.8337 96.7864 43.5826 98.5353 45.74 98.5353H93.7187C95.8761 98.5353 97.625 96.7864 97.625 94.629V35.6655C97.6248 33.5083 95.8759 31.7593 93.7185 31.7593Z" fill="#26A6FE"/>
<path d="M69.7293 70.2315C77.4153 70.2315 83.6461 64.0008 83.6461 56.3147C83.6461 48.6287 77.4153 42.3979 69.7293 42.3979C62.0433 42.3979 55.8125 48.6287 55.8125 56.3147C55.8125 64.0008 62.0433 70.2315 69.7293 70.2315Z" fill="white"/>
<path d="M72.7813 42.7378C75.8673 45.2903 77.8337 49.1485 77.8337 53.4661C77.8337 61.1522 71.603 67.3829 63.9169 67.3829C62.8679 67.3829 61.8474 67.263 60.8647 67.0431C63.2722 69.0345 66.3608 70.2315 69.7292 70.2315C77.4153 70.2315 83.646 64.0009 83.646 56.3147C83.646 49.6776 78.9985 44.1296 72.7813 42.7378Z" fill="#F8F6F6"/>
<path d="M82.4487 88.4176H57.0102C54.4557 88.4176 52.385 86.3469 52.385 83.7924C52.385 81.2379 54.4557 79.1672 57.0102 79.1672H82.4487C85.0032 79.1672 87.0739 81.2379 87.0739 83.7924C87.0737 86.3469 85.003 88.4176 82.4487 88.4176Z" fill="#FFD15B"/>
<path d="M82.4485 79.1672H81.242C81.2469 79.2542 81.2499 79.3417 81.2499 79.4299C81.2499 81.9844 79.1791 84.0551 76.6247 84.0551H52.3928C52.529 86.4874 54.5438 88.4176 57.0102 88.4176H82.4487C85.0032 88.4176 87.0739 86.3469 87.0739 83.7924C87.0737 81.2381 85.003 79.1672 82.4485 79.1672Z" fill="#FFC344"/>
<path d="M28.8217 98.5353H6.28149C4.12407 98.5353 2.37524 96.7865 2.37524 94.6291V79.8132C2.37524 77.6558 4.12407 75.907 6.28149 75.907H28.8217C30.9792 75.907 32.728 77.6558 32.728 79.8132V94.6291C32.728 96.7865 30.9792 98.5353 28.8217 98.5353Z" fill="#05E39C"/>
<path d="M28.8217 75.907H25.9766V88.8394C25.9766 90.9968 24.2278 92.7457 22.0704 92.7457H2.37524V94.6291C2.37524 96.7865 4.12407 98.5353 6.28149 98.5353H28.8217C30.9792 98.5353 32.728 96.7865 32.728 94.6291V79.8132C32.728 77.6558 30.9792 75.907 28.8217 75.907Z" fill="#0ED290"/>
<path d="M28.8217 65.8103H6.28149C4.12407 65.8103 2.37524 64.0614 2.37524 61.904V35.6655C2.37524 33.5081 4.12407 31.7593 6.28149 31.7593H28.8217C30.9792 31.7593 32.728 33.5081 32.728 35.6655V61.904C32.728 64.0614 30.9792 65.8103 28.8217 65.8103Z" fill="#FFD15B"/>
<path d="M28.8217 31.7593H25.9766V56.0548C25.9766 58.2122 24.2278 59.961 22.0704 59.961H2.37524V61.904C2.37524 64.0614 4.12407 65.8103 6.28149 65.8103H28.8217C30.9792 65.8103 32.728 64.0614 32.728 61.904V35.6655C32.728 33.5083 30.9792 31.7593 28.8217 31.7593Z" fill="#FFC344"/>
<path d="M9.58276 87.2209C9.58276 88.0299 10.2386 88.6858 11.0476 88.6858H24.056C24.865 88.6858 25.5208 88.0299 25.5208 87.2209C25.5208 86.412 24.865 85.7561 24.056 85.7561H11.0476C10.2386 85.7561 9.58276 86.412 9.58276 87.2209Z" fill="#FAF6F6" fill-opacity="0.5"/>
<path d="M17.5278 42.4446H25.5013C26.3103 42.4446 26.9661 41.7887 26.9661 40.9797C26.9661 40.1708 26.3103 39.5149 25.5013 39.5149H17.5278C16.7188 39.5149 16.063 40.1708 16.063 40.9797C16.063 41.7887 16.7188 42.4446 17.5278 42.4446Z" fill="#FAF6F6" fill-opacity="0.5"/>
<path d="M17.5278 50.2495H25.5013C26.3103 50.2495 26.9661 49.5937 26.9661 48.7847C26.9661 47.9757 26.3103 47.3198 25.5013 47.3198H17.5278C16.7188 47.3198 16.063 47.9757 16.063 48.7847C16.063 49.5937 16.7188 50.2495 17.5278 50.2495Z" fill="#FAF6F6" fill-opacity="0.5"/>
<path d="M17.5278 58.0544H25.5013C26.3103 58.0544 26.9661 57.3986 26.9661 56.5896C26.9661 55.7806 26.3103 55.1248 25.5013 55.1248H17.5278C16.7188 55.1248 16.063 55.7806 16.063 56.5896C16.063 57.3986 16.7188 58.0544 17.5278 58.0544Z" fill="#FAF6F6" fill-opacity="0.5"/>
<path d="M9.60205 42.4446H10.439C11.2479 42.4446 11.9038 41.7887 11.9038 40.9797C11.9038 40.1708 11.2479 39.5149 10.439 39.5149H9.60205C8.79307 39.5149 8.13721 40.1708 8.13721 40.9797C8.13721 41.7887 8.79307 42.4446 9.60205 42.4446Z" fill="#FAF6F6" fill-opacity="0.5"/>
<path d="M9.60205 50.2495H10.439C11.2479 50.2495 11.9038 49.5937 11.9038 48.7847C11.9038 47.9757 11.2479 47.3198 10.439 47.3198H9.60205C8.79307 47.3198 8.13721 47.9757 8.13721 48.7847C8.13721 49.5937 8.79307 50.2495 9.60205 50.2495Z" fill="#FAF6F6" fill-opacity="0.5"/>
<path d="M9.60205 58.0544H10.439C11.2479 58.0544 11.9038 57.3986 11.9038 56.5896C11.9038 55.7806 11.2479 55.1248 10.439 55.1248H9.60205C8.79307 55.1248 8.13721 55.7806 8.13721 56.5896C8.13721 57.3986 8.79307 58.0544 9.60205 58.0544Z" fill="#FAF6F6" fill-opacity="0.5"/>
<path d="M97.6248 20.8674H2.37524C1.56626 20.8674 0.9104 21.5233 0.9104 22.3323C0.9104 23.1413 1.56626 23.7971 2.37524 23.7971H97.6248C98.434 23.7971 99.0897 23.1413 99.0897 22.3323C99.0897 21.5233 98.434 20.8674 97.6248 20.8674Z" fill="#FAF6F6" fill-opacity="0.5"/>
<path d="M16.4727 0.000488281C15.6637 0.000488281 15.0078 0.656348 15.0078 1.46533V12.9417C15.0078 13.7507 15.6637 14.4065 16.4727 14.4065C17.2816 14.4065 17.9375 13.7507 17.9375 12.9417V1.46533C17.9375 0.656348 17.2816 0.000488281 16.4727 0.000488281Z" fill="#FAF6F6" fill-opacity="0.5"/>
<path d="M10.3497 0.000488281C9.54072 0.000488281 8.88486 0.656348 8.88486 1.46533V9.354C8.88486 9.89522 8.73057 10.5938 7.52783 11.1995C7.15752 11.386 6.75537 11.4767 6.29795 11.4767H6.29307C5.79268 11.4761 5.35791 11.3534 4.96455 11.1021C4.03154 10.506 3.84033 9.97529 3.84033 9.36221V1.46533C3.84033 0.656348 3.18447 0.000488281 2.37549 0.000488281C1.5665 0.000488281 0.910645 0.656348 0.910645 1.46533V9.3624C0.910645 11.1052 1.74385 12.5212 3.38721 13.5712C4.25264 14.1241 5.2292 14.4052 6.28916 14.4065H6.29795C7.21103 14.4065 8.06826 14.2079 8.8458 13.8163C11.2995 12.5806 11.8146 10.7075 11.8146 9.354V1.46533C11.8146 0.656348 11.1587 0.000488281 10.3497 0.000488281Z" fill="#FAF6F6" fill-opacity="0.5"/>
<path d="M52.9969 6.79637L56.1582 2.30887C56.6242 1.64754 56.4658 0.733673 55.8043 0.267658C55.1424 -0.198358 54.2289 -0.0395688 53.7633 0.621564L51.2064 4.25106L48.6537 0.622345C48.1881 -0.0393734 47.2744 -0.198162 46.6127 0.267072C45.951 0.732502 45.792 1.64637 46.2574 2.30809L49.4141 6.7952L45.6785 12.0979C45.2127 12.7593 45.3711 13.6731 46.0324 14.1391C46.2889 14.3198 46.5832 14.4065 46.8748 14.4065C47.3352 14.4065 47.7883 14.1901 48.0736 13.7852L51.2047 9.34051L54.3309 13.7845C54.616 14.1899 55.0693 14.4065 55.5303 14.4065C55.8213 14.4065 56.1154 14.32 56.3719 14.1397C57.0336 13.6743 57.1926 12.7604 56.727 12.0987L52.9969 6.79637Z" fill="#FAF6F6" fill-opacity="0.5"/>
<path d="M42.2352 0.000488281C41.4262 0.000488281 40.7703 0.656348 40.7703 1.46533V9.354C40.7703 9.89522 40.616 10.5938 39.4133 11.1995C39.043 11.386 38.6408 11.4767 38.1834 11.4767H38.1785C37.6779 11.4761 37.2434 11.3536 36.8498 11.1021C35.9168 10.506 35.7256 9.97529 35.7256 9.36221V1.46533C35.7256 0.656348 35.0697 0.000488281 34.2607 0.000488281C33.4518 0.000488281 32.7959 0.656348 32.7959 1.46533V9.3624C32.7959 11.1052 33.6293 12.5212 35.2725 13.571C36.1379 14.1241 37.1143 14.4052 38.1746 14.4065H38.1834C39.0965 14.4065 39.9537 14.2079 40.7312 13.8163C43.185 12.5806 43.7002 10.7077 43.7002 9.3542V1.46533C43.7 0.656348 43.0441 0.000488281 42.2352 0.000488281Z" fill="#FAF6F6" fill-opacity="0.5"/>
<path d="M28.5913 0.116016C27.8464 -0.199023 26.9868 0.149609 26.6716 0.894727L21.8187 12.3711C21.5036 13.1162 21.8521 13.9756 22.5974 14.2908C22.7837 14.3695 22.9769 14.4068 23.1671 14.4068C23.738 14.4068 24.2806 14.0709 24.5169 13.5121L29.37 2.03574C29.6851 1.29063 29.3365 0.431055 28.5913 0.116016Z" fill="#FAF6F6" fill-opacity="0.5"/>
<path d="M87.4131 2.96924H97.625C98.4342 2.96924 99.0898 2.31338 99.0898 1.50439C99.0898 0.69541 98.4342 0.0395508 97.625 0.0395508H87.4131C86.6039 0.0395508 85.9482 0.69541 85.9482 1.50439C85.9482 2.31338 86.6039 2.96924 87.4131 2.96924Z" fill="#FAF6F6" fill-opacity="0.5"/>
<path d="M97.625 5.73853H87.4131C86.6039 5.73853 85.9482 6.39438 85.9482 7.20337C85.9482 8.01235 86.6039 8.66821 87.4131 8.66821H97.625C98.4342 8.66821 99.0898 8.01235 99.0898 7.20337C99.0898 6.39438 98.4342 5.73853 97.625 5.73853Z" fill="#FAF6F6" fill-opacity="0.5"/>
<path d="M97.625 11.4375H87.4131C86.6039 11.4375 85.9482 12.0934 85.9482 12.9023C85.9482 13.7113 86.6039 14.3672 87.4131 14.3672H97.625C98.4342 14.3672 99.0898 13.7113 99.0898 12.9023C99.0898 12.0934 98.4342 11.4375 97.625 11.4375Z" fill="#FAF6F6" fill-opacity="0.5"/>
<path d="M93.7185 30.2944H45.74C42.7783 30.2944 40.3689 32.7038 40.3689 35.6655V94.629C40.3689 97.5907 42.7783 100 45.74 100H93.7185C96.68 100 99.0896 97.5907 99.0896 94.629V35.6655C99.0896 32.704 96.68 30.2944 93.7185 30.2944ZM96.1599 94.629C96.1599 95.9753 95.0648 97.0704 93.7185 97.0704H45.74C44.3937 97.0704 43.2986 95.9753 43.2986 94.629V35.6655C43.2986 34.3192 44.3937 33.2241 45.74 33.2241H93.7185C95.0648 33.2241 96.1599 34.3192 96.1599 35.6655V94.629Z" fill="#FAF6F6" fill-opacity="0.5"/>
<path d="M28.8217 74.4419H17.1875C16.3786 74.4419 15.7227 75.0978 15.7227 75.9067C15.7227 76.7157 16.3786 77.3716 17.1875 77.3716H28.8217C30.168 77.3716 31.2631 78.4667 31.2631 79.813V94.6288C31.2631 95.9751 30.168 97.0702 28.8217 97.0702H6.28149C4.93521 97.0702 3.84009 95.9751 3.84009 94.6288V79.813C3.84009 78.4667 4.93521 77.3716 6.28149 77.3716H10.3516C11.1606 77.3716 11.8165 76.7157 11.8165 75.9067C11.8165 75.0978 11.1606 74.4419 10.3516 74.4419H6.28149C3.31978 74.4419 0.9104 76.8513 0.9104 79.813V94.6288C0.9104 97.5905 3.31978 99.9999 6.28149 99.9999H28.8217C31.7835 99.9999 34.1928 97.5905 34.1928 94.6288V79.813C34.1928 76.8513 31.7835 74.4419 28.8217 74.4419Z" fill="#FAF6F6" fill-opacity="0.5"/>
<path d="M28.8217 30.2944H6.28149C3.31978 30.2944 0.9104 32.7038 0.9104 35.6655V42.0335C0.9104 42.8425 1.56626 43.4983 2.37524 43.4983C3.18423 43.4983 3.84009 42.8425 3.84009 42.0335V35.6655C3.84009 34.3192 4.93521 33.2241 6.28149 33.2241H28.8217C30.168 33.2241 31.2631 34.3192 31.2631 35.6655V61.904C31.2631 63.2503 30.168 64.3454 28.8217 64.3454H6.28149C4.93521 64.3454 3.84009 63.2503 3.84009 61.904V48.8694C3.84009 48.0604 3.18423 47.4046 2.37524 47.4046C1.56626 47.4046 0.9104 48.0604 0.9104 48.8694V61.904C0.9104 64.8657 3.31978 67.2751 6.28149 67.2751H28.8217C31.7835 67.2751 34.1928 64.8657 34.1928 61.904V35.6655C34.1928 32.704 31.7835 30.2944 28.8217 30.2944Z" fill="#FAF6F6" fill-opacity="0.5"/>
<path d="M69.7294 68.7667C64.0182 68.7667 59.0538 64.9042 57.6569 59.3739C57.4589 58.5896 56.6618 58.1144 55.878 58.3124C55.0936 58.5104 54.6184 59.3069 54.8165 60.0913C56.5423 66.9241 62.6745 71.6964 69.7294 71.6964C78.2108 71.6964 85.111 64.7962 85.111 56.3147C85.111 47.8333 78.2108 40.9331 69.7294 40.9331C62.6747 40.9331 56.5423 45.7052 54.8165 52.538C54.6182 53.3224 55.0936 54.1188 55.878 54.3169C56.663 54.5151 57.4591 54.0399 57.6569 53.2554C59.0536 47.7251 64.018 43.8628 69.7294 43.8628C76.5954 43.8628 82.1813 49.4487 82.1813 56.3147C82.1813 63.1808 76.5954 68.7667 69.7294 68.7667Z" fill="#FAF6F6" fill-opacity="0.5"/>
<path d="M82.4487 77.7024H57.0102C53.6522 77.7024 50.9202 80.4344 50.9202 83.7924C50.9202 87.1504 53.652 89.8825 57.0102 89.8825H82.4487C85.8067 89.8825 88.5387 87.1504 88.5387 83.7924C88.5387 80.4344 85.8067 77.7024 82.4487 77.7024ZM82.4487 86.9528H57.0102C55.2676 86.9528 53.8499 85.535 53.8499 83.7924C53.8499 82.0499 55.2676 80.6321 57.0102 80.6321H82.4487C84.1913 80.6321 85.609 82.0499 85.609 83.7924C85.609 85.535 84.1913 86.9528 82.4487 86.9528Z" fill="#FAF6F6" fill-opacity="0.5"/>
</g>
<defs>
<clipPath id="clip0_16_123">
<rect width="100" height="100" fill="white"/>
</clipPath>
</defs>
</svg>
